<svg xmlns="http://www.w3.org/2000/svg" width="38" height="35" fill="none" viewBox="0 0 38 35">
  <path fill="#000" d="M7.321 7.022h-1.83v1.756h1.83V7.022Zm1.831-1.755h-1.83v1.755h1.83V5.267Zm3.66-1.756h-3.66v1.756h3.66V3.51Zm10.982-1.755H12.812V3.51h10.982V1.756Zm3.661 1.755h-3.66v1.756h3.66V3.51Zm1.83 1.756h-1.83v1.755h1.83V5.267Zm3.661 3.511h-1.83v3.51h1.83v-3.51Zm-1.83-1.756h-1.83v1.756h1.83V7.022ZM5.491 8.778h-1.83v3.51h1.83v-3.51ZM3.66 12.289H1.83v10.533h1.83V12.289Zm1.831 10.533h-1.83v3.51h1.83v-3.51Zm1.83 3.511h-1.83v1.755h1.83v-1.755Zm1.831 1.755h-1.83v1.756h1.83v-1.756Zm3.66 1.756h-3.66v1.755h3.66v-1.755ZM23.794 31.6H12.812v1.755h10.982v-1.756Zm3.661-1.756h-3.66v1.755h3.66v-1.755Zm1.83-1.756h-1.83v1.756h1.83v-1.756Zm1.831-1.755h-1.83v1.755h1.83v-1.755Zm1.83-3.511h-1.83v3.51h1.83v-3.51Zm1.83-10.533h-1.83v10.533h1.83V12.289Z"/>
</svg>
