<svg xmlns="http://www.w3.org/2000/svg" width="205" height="205" fill="none" viewBox="0 0 205 205">
  <path fill="#000" d="M40.971 0h81.943v20.486H40.971V0ZM20.486 40.971V20.486H40.97V40.97H20.486Zm0 81.943H0V40.971h20.486v81.943ZM40.97 143.4H20.486v-20.486H40.97V143.4Zm81.943 0v20.486H40.971V143.4h81.943Zm20.486-20.486h-20.486V143.4H143.4v20.486h20.486v20.485h20.485v20.486h20.486v-20.486h-20.486v-20.485h-20.485V143.4H143.4v-20.486Zm0-81.943h20.486v81.943H143.4V40.971Zm0 0V20.486h-20.486V40.97H143.4Z"/>
</svg>
