<svg xmlns="http://www.w3.org/2000/svg" width="31" height="33" fill="none" viewBox="0 0 31 33">
  <path fill="#000" d="M10.33 2.2h2.07V0H6.2v2.2h4.13ZM6.2 4.39V2.2H4.13v2.19H0v2.2h4.13v2.199H6.2V4.39Zm6.2 0v4.4h2.07V2.2H12.4v2.19Zm16.53 0h-12.4v2.2H31v-2.2h-2.07ZM8.27 8.789H6.2v2.19h6.2V8.79H8.27Zm14.46 4.391h2.07v-2.2h-6.2v2.2h4.13Zm-12.4 2.198H0v2.191h14.47v-2.19h-4.14Zm8.27 0V13.18h-2.07v6.59h2.07v-4.391Zm8.27 0V13.18H24.8v6.59h2.07v-2.2H31v-2.19h-4.13Zm-6.2 4.391H18.6v2.199h6.2v-2.2h-4.13Zm-10.34 4.39h2.07v-2.191H6.2v2.191h4.13ZM6.2 26.358V24.16H4.13v2.2H0v2.198h4.13v2.192H6.2v-4.391Zm6.2 0v4.39h2.07V24.16H12.4v2.2Zm14.47 0H16.53v2.2H31v-2.2h-4.13Zm-18.6 4.39H6.2v2.2h6.2v-2.2H8.27Z"/>
</svg>
